<svg width="24" height="24" viewBox="0 0 24 24" fill="none" xmlns="http://www.w3.org/2000/svg">
<path fill-rule="evenodd" clip-rule="evenodd" d="M0.719164 20.933L8.17917 11.9813L0.987499 3.04465C0.410831 2.32798 0.524164 1.27965 1.24083 0.701317C1.54917 0.452982 1.91916 0.332981 2.28583 0.332981C2.7725 0.332981 3.25583 0.546316 3.58583 0.954649L11.6325 10.9546C12.1292 11.573 12.1225 12.458 11.6142 13.0663L3.28083 23.0663C2.69083 23.7746 1.64083 23.868 0.932499 23.2796C0.225832 22.6913 0.130831 21.6396 0.719164 20.933ZM14.9465 23.0668C14.3582 23.7735 13.3082 23.8685 12.5998 23.2802C11.8932 22.6902 11.7982 21.6402 12.3865 20.9335L19.8465 11.9818L12.6548 3.04516C12.0782 2.3285 12.1915 1.2785 12.9082 0.701828C13.2165 0.453495 13.5848 0.333496 13.9532 0.333496C14.4398 0.333496 14.9232 0.545162 15.2515 0.955162L23.2982 10.9552C23.7965 11.5735 23.7882 12.4568 23.2798 13.0668L14.9465 23.0668Z" fill="#2E3A59"/>
</svg>
