<svg width="24" height="24" viewBox="0 0 24 24" fill="none" xmlns="http://www.w3.org/2000/svg">
<path fill-rule="evenodd" clip-rule="evenodd" d="M23.2808 3.06702L15.8208 12.0187L23.0125 20.9554C23.5892 21.672 23.4758 22.7204 22.7592 23.2987C22.4508 23.547 22.0808 23.667 21.7142 23.667C21.2275 23.667 20.7442 23.4537 20.4142 23.0454L12.3675 13.0454C11.8708 12.427 11.8775 11.542 12.3858 10.9337L20.7192 0.933687C21.3092 0.225353 22.3592 0.13202 23.0675 0.720353C23.7742 1.30869 23.8692 2.36035 23.2808 3.06702ZM9.0535 0.933169C9.64184 0.226503 10.6918 0.131503 11.4002 0.719836C12.1068 1.30984 12.2018 2.35984 11.6135 3.0665L4.1535 12.0182L11.3452 20.9548C11.9218 21.6715 11.8085 22.7215 11.0918 23.2982C10.7835 23.5465 10.4152 23.6665 10.0468 23.6665C9.56017 23.6665 9.07684 23.4548 8.7485 23.0448L0.701835 13.0448C0.203501 12.4265 0.211835 11.5432 0.720168 10.9332L9.0535 0.933169Z" fill="#2E3A59"/>
</svg>
