<svg width="18" height="16" viewBox="0 0 18 16" fill="none" xmlns="http://www.w3.org/2000/svg">
<path fill-rule="evenodd" clip-rule="evenodd" d="M16 12.4022L10 13.7502V3.59723L16 2.25023V12.4022ZM2 2.25023L8 3.59723V13.7502L2 12.4022V2.25023ZM17.625 0.218226C17.387 0.0292256 17.077 -0.0427744 16.78 0.0242256L9 1.77223L1.22 0.0242256C0.922 -0.0437744 0.613 0.0292256 0.375 0.218226C0.138 0.409226 0 0.696226 0 1.00023V13.2022C0 13.6702 0.324 14.0752 0.78 14.1772L8.78 15.9752C8.854 15.9922 8.927 16.0002 9 16.0002C9.073 16.0002 9.146 15.9922 9.22 15.9752L17.22 14.1772C17.676 14.0752 18 13.6702 18 13.2022V1.00023C18 0.696226 17.862 0.409226 17.625 0.218226Z" fill="#0466C8"/>
</svg>
