<svg width="10" height="20" viewBox="0 0 10 20" fill="none" xmlns="http://www.w3.org/2000/svg">
<path fill-rule="evenodd" clip-rule="evenodd" d="M9.09724 7.66663H5.83333V5.50609C5.83333 4.51976 6.05255 3.84796 7.46667 3.84796L8.86667 3.84721C9.13946 3.84721 9.33333 3.6259 9.33333 3.35283V1.161C9.33333 0.887935 9.13946 0.666626 8.86667 0.666626H6.41667C3.81651 0.666626 2.33333 2.25381 2.33333 5.16857V7.66663H0.2C0.089543 7.66663 0 7.75617 0 7.86663V10.9666C0 11.0771 0.0895429 11.1666 0.2 11.1666H2.33333V19.3333H5.83333V11.1666H8.58057C8.67834 11.1666 8.76178 11.0959 8.77785 10.9995L9.29452 7.89951C9.31484 7.7776 9.22083 7.66663 9.09724 7.66663Z" fill="#212121"/>
</svg>
