<svg width="23" height="22" viewBox="0 0 23 22" fill="none" xmlns="http://www.w3.org/2000/svg">
<path fill-rule="evenodd" clip-rule="evenodd" d="M16.6412 8.6665H13.3773V6.50597C13.3773 5.51964 13.5965 4.84784 15.0106 4.84784L16.4106 4.84708C16.6834 4.84708 16.8773 4.62577 16.8773 4.35271V2.16088C16.8773 1.88781 16.6834 1.6665 16.4106 1.6665H13.9606C11.3605 1.6665 9.87728 3.25369 9.87728 6.16845V8.6665H7.74395C7.63349 8.6665 7.54395 8.75605 7.54395 8.8665V11.9665C7.54395 12.077 7.63349 12.1665 7.74395 12.1665H9.87728V20.3332H13.3773V12.1665H16.1245C16.2223 12.1665 16.3057 12.0958 16.3218 11.9994L16.8385 8.89938C16.8588 8.77748 16.7648 8.6665 16.6412 8.6665Z" fill="white"/>
</svg>
