<svg width="25" height="20" viewBox="0 0 25 20" fill="none" xmlns="http://www.w3.org/2000/svg">
<path d="M16.354 5.87524H22.5206C22.9464 5.87524 23.2915 6.22035 23.2915 6.64606V18.2084H24.8331V19.75H16.354V5.87524ZM14.8123 1.25031V19.75H0.166504V18.2084H1.70817V1.25031C1.70817 0.8246 2.05328 0.479492 2.479 0.479492H14.0415C14.4672 0.479492 14.8123 0.8246 14.8123 1.25031ZM4.02066 8.1877V11.271H7.10399V8.1877H4.02066ZM4.02066 13.5834V16.6667H7.10399V13.5834H4.02066ZM9.41649 8.1877V11.271H12.4998V8.1877H9.41649ZM9.41649 2.79195V5.87524H12.4998V2.79195H9.41649ZM16.354 8.1877V11.271H20.979V8.1877H16.354ZM16.354 13.5834V16.6667H20.979V13.5834H16.354ZM9.41649 13.5834V16.6667H12.4998V13.5834H9.41649ZM4.02066 2.79195V5.87524H7.10399V2.79195H4.02066Z" fill="#212121"/>
</svg>
