<svg width="20" height="20" viewBox="0 0 20 20" fill="none" xmlns="http://www.w3.org/2000/svg">
<path fill-rule="evenodd" clip-rule="evenodd" d="M6.15196 0.722853C7.14746 0.677431 7.46526 0.666687 10.0001 0.666687C12.5349 0.666687 12.8527 0.677431 13.8482 0.722853C14.8416 0.768201 15.5201 0.925954 16.1138 1.15669C16.7275 1.39521 17.248 1.71435 17.7669 2.23322C18.2858 2.75209 18.6049 3.27258 18.8434 3.88633C19.0741 4.48004 19.2319 5.15847 19.2772 6.15194C19.3227 7.1474 19.3334 7.46524 19.3334 10C19.3334 12.5348 19.3227 12.8527 19.2772 13.8481C19.2319 14.8416 19.0741 15.52 18.8434 16.1137C18.6049 16.7275 18.2858 17.248 17.7669 17.7669C17.248 18.2857 16.7275 18.6049 16.1138 18.8434C15.5201 19.0741 14.8416 19.2319 13.8482 19.2772C12.8527 19.3226 12.5349 19.3334 10.0001 19.3334C7.46526 19.3334 7.14746 19.3226 6.15196 19.2772C5.1585 19.2319 4.48006 19.0741 3.88636 18.8434C3.27261 18.6049 2.75211 18.2857 2.23324 17.7669C1.71437 17.248 1.39524 16.7275 1.15672 16.1137C0.925978 15.52 0.768225 14.8416 0.722877 13.8481C0.677455 12.8527 0.666748 12.5348 0.666748 10C0.666748 7.46524 0.677455 7.1474 0.722877 6.15194C0.768225 5.15847 0.925978 4.48004 1.15672 3.88633C1.39524 3.27258 1.71437 2.75209 2.23324 2.23322C2.75211 1.71435 3.27261 1.39521 3.88636 1.15669C4.48006 0.925954 5.1585 0.768201 6.15196 0.722853ZM5.20842 9.99998C5.20842 7.353 7.35424 5.20717 10.0012 5.20717C12.6482 5.20717 14.794 7.353 14.794 9.99998C14.794 12.647 12.6482 14.7928 10.0012 14.7928C7.35424 14.7928 5.20842 12.647 5.20842 9.99998ZM16.1021 5.01791C16.1021 5.63648 15.6006 6.13793 14.9821 6.13793C14.3635 6.13793 13.8621 5.63648 13.8621 5.01791C13.8621 4.39935 14.3635 3.89793 14.9821 3.89793C15.6006 3.89793 16.1021 4.39935 16.1021 5.01791ZM6.88893 10.0001C6.88893 11.7183 8.28185 13.1112 10.0001 13.1112C11.7183 13.1112 13.1112 11.7183 13.1112 10.0001C13.1112 8.28186 11.7183 6.88894 10.0001 6.88894C8.28185 6.88894 6.88893 8.28186 6.88893 10.0001Z" fill="#212121"/>
</svg>
