<svg width="48" height="48" viewBox="0 0 48 48" fill="none" xmlns="http://www.w3.org/2000/svg">
<path d="M8.76006 28.872V45H5.80806V28.872H2.66406V26.208H11.9281V28.872H8.76006Z" fill="white"/>
<path d="M20.6645 45.0001L18.2165 37.2961H16.5605V45.0001H13.5845V26.1841H18.3365C21.7685 26.1841 23.1365 27.8401 23.1365 31.7281C23.1365 34.0561 22.6565 35.7121 20.9525 36.6481L23.7605 45.0001H20.6645ZM18.3605 28.8721H16.5365V34.6321H18.3605C19.9445 34.6321 20.1845 33.3121 20.1845 31.7521C20.1845 30.1921 19.9445 28.8721 18.3605 28.8721Z" fill="white"/>
<path d="M25.5601 26.208H28.5121V45H25.5601V26.208Z" fill="white"/>
<path d="M35.6635 37.6561H33.8875V45.0001H30.9355V26.1841H35.6635C39.0715 26.1841 40.4875 27.9601 40.4875 31.8961C40.5115 35.7121 39.2395 37.6561 35.6635 37.6561ZM35.7355 28.8721H33.9115V34.9921H35.7355C37.3195 34.9921 37.5595 33.6001 37.5595 31.9201C37.5595 30.2641 37.3195 28.8721 35.7355 28.8721Z" fill="white"/>
<path d="M43.9681 45.12C42.9361 45.12 42.1201 44.304 42.1201 43.272C42.1201 42.24 42.9361 41.4 43.9681 41.4C45.0001 41.4 45.8161 42.24 45.8161 43.272C45.8161 44.304 45.0001 45.12 43.9681 45.12ZM42.5521 26.208H45.3601V39.744H42.5521V26.208Z" fill="white"/>
<path d="M6.98392 22.4643C6.57592 22.9443 6.02392 23.3043 5.06392 23.3043C4.12792 23.3043 3.57592 22.9443 3.14392 22.4643C2.39992 21.6243 2.42392 20.1843 2.42392 18.2403C2.42392 16.2963 2.39992 14.8563 3.14392 14.0163C3.55192 13.5363 4.10392 13.1763 5.06392 13.1763C5.99992 13.1763 6.55192 13.5363 6.98392 14.0163C7.72792 14.8563 7.70392 16.2963 7.70392 18.2403C7.70392 20.1843 7.70392 21.6243 6.98392 22.4643ZM5.80792 14.9763C5.66392 14.7603 5.42392 14.5923 5.06392 14.5923C4.67992 14.5923 4.46392 14.7363 4.31992 14.9763C4.03192 15.4563 3.98392 16.4403 3.98392 18.2403C3.98392 20.0403 4.03192 21.0483 4.31992 21.5043C4.46392 21.7203 4.67992 21.8883 5.06392 21.8883C5.44792 21.8883 5.66392 21.7443 5.80792 21.5043C6.09592 21.0243 6.14392 20.0403 6.14392 18.2403C6.14392 16.4403 6.09592 15.4563 5.80792 14.9763Z" fill="white"/>
<path d="M13.1038 23.1838L10.7758 17.3278V23.1838H9.21582V13.3198H10.6078L12.9118 19.1758V13.3198H14.4718V23.1838H13.1038Z" fill="white"/>
<path d="M16.1523 23.1838V13.3198H20.2803V14.7118H17.6883V17.5198H19.9203V18.9118H17.6883V21.7918H20.2803V23.1838H16.1523Z" fill="white"/>
<path d="M27.1676 14.7118V23.1838H25.6316V14.7118H23.9756V13.3198H28.8476V14.7118H27.1676Z" fill="white"/>
<path d="M37.6558 23.1838H36.0478L34.6318 15.6958L33.2398 23.1838H31.6078L29.7358 13.3198H31.4398L32.4238 20.8078L33.7678 13.3198H35.4958L36.8638 20.8078L37.8238 13.3198H39.5278L37.6558 23.1838Z" fill="white"/>
<path d="M44.856 22.4643C44.448 22.9443 43.896 23.3043 42.936 23.3043C42 23.3043 41.448 22.9443 41.016 22.4643C40.272 21.6243 40.296 20.1843 40.296 18.2403C40.296 16.2963 40.272 14.8563 41.016 14.0163C41.424 13.5363 41.976 13.1763 42.936 13.1763C43.872 13.1763 44.424 13.5363 44.856 14.0163C45.6 14.8563 45.576 16.2963 45.576 18.2403C45.576 20.1843 45.6 21.6243 44.856 22.4643ZM43.704 14.9763C43.56 14.7603 43.32 14.5923 42.96 14.5923C42.576 14.5923 42.36 14.7363 42.216 14.9763C41.928 15.4563 41.88 16.4403 41.88 18.2403C41.88 20.0403 41.928 21.0483 42.216 21.5043C42.36 21.7203 42.576 21.8883 42.96 21.8883C43.344 21.8883 43.56 21.7443 43.704 21.5043C43.992 21.0243 44.04 20.0403 44.04 18.2403C44.04 16.4403 43.992 15.4563 43.704 14.9763Z" fill="white"/>
<path d="M32.2316 8.25586C31.1036 4.72786 27.8156 2.25586 23.9996 2.25586C19.7756 2.25586 16.1996 5.27986 15.4796 9.40786C15.4076 9.76786 15.6476 10.1039 16.0076 10.1759C16.3676 10.2479 16.7036 10.0079 16.7756 9.64786C17.3996 6.16786 20.4236 3.57586 23.9996 3.57586C27.2156 3.57586 29.9996 5.66386 30.9596 8.59186L30.0476 8.83186L32.3516 11.1839L33.2396 7.99186L32.2316 8.25586Z" fill="white"/>
</svg>
