<svg width="19" height="19" viewBox="0 0 19 19" fill="none" xmlns="http://www.w3.org/2000/svg">
<path fill-rule="evenodd" clip-rule="evenodd" d="M8.69402 0H10.3377V3.15434C11.6612 1.83085 13.4474 1.15822 15.6531 1.15822V2.80186C13.8452 2.80186 12.4518 3.32397 11.4268 4.39123C14.3885 3.80371 16.8126 4.60518 18.5876 6.81852L17.3053 7.84681C15.8394 6.01886 13.8482 5.43643 11.1984 6.12689C13.5445 6.90337 15.2721 8.45306 16.3363 10.7491L14.8451 11.4403C13.8064 9.1992 12.0492 7.86243 9.49791 7.38488C6.94666 7.86243 5.18946 9.1992 4.15077 11.4403L2.65952 10.7491C3.72374 8.45293 5.4515 6.90319 7.7978 6.12676C5.14826 5.4365 3.15725 6.01898 1.69143 7.84681L0.40918 6.81852C2.18416 4.60518 4.60826 3.80371 7.56994 4.39123C6.545 3.32397 5.15154 2.80186 3.34368 2.80186V1.15822C5.5688 1.15822 7.36708 1.84278 8.69402 3.18953V0ZM8.69402 9.36738C8.69402 8.91351 9.06196 8.54557 9.51584 8.54557C9.96972 8.54557 10.3377 8.91351 10.3377 9.36738V14.4921C13.1361 14.6885 15.6131 15.8527 17.3077 17.5916C18.7708 19.0929 0.222415 19.0799 1.69436 17.5764C3.39753 15.8368 5.88548 14.6757 8.69402 14.4891V9.36738Z" fill="white"/>
</svg>
