<svg width="24" height="24" viewBox="0 0 24 24" fill="none" xmlns="http://www.w3.org/2000/svg">
<path fill-rule="evenodd" clip-rule="evenodd" d="M17.6245 3.86074C18.2206 3.26465 19.1648 3.24649 19.7594 3.84111C20.3541 4.43573 20.3359 5.37993 19.7398 5.97601L15.9807 9.73509L17.8476 18.5399C17.9526 19.0351 17.8 19.5498 17.4421 19.9078L16.6927 20.6571L12.7565 12.9593L8.72622 16.9896L9.16303 19.2613C9.20988 19.5049 9.13286 19.7559 8.95744 19.9313L8.16319 20.7256L6.32515 17.2754L2.875 15.4374L3.66925 14.6431C3.84467 14.4677 4.09566 14.3907 4.33929 14.4375L6.61094 14.8743L17.6245 3.86074ZM2.94342 6.90783L3.71334 6.13792C4.07107 5.78018 4.5854 5.62753 5.08037 5.73218L12.3937 7.27844L9.44747 10.2247L2.94342 6.90783Z" fill="white"/>
</svg>
