<svg width="24" height="24" viewBox="0 0 24 24" fill="none" xmlns="http://www.w3.org/2000/svg">
<path fill-rule="evenodd" clip-rule="evenodd" d="M12 3.99991C14.206 3.99991 16 5.79391 16 7.99991C16 10.2059 14.206 11.9999 12 11.9999C9.79395 11.9999 7.99995 10.2059 7.99995 7.99991C7.99995 5.79391 9.79395 3.99991 12 3.99991ZM18.969 20.7509L16.66 11.7719C17.496 10.7399 18 9.42891 18 7.99991C18 4.69091 15.309 1.99991 12 1.99991C8.69096 1.99991 5.99996 4.69091 5.99996 7.99991C5.99996 9.42891 6.50396 10.7399 7.33996 11.7719L5.03096 20.7509C4.93096 21.1429 5.07496 21.5559 5.39796 21.7989C5.72096 22.0419 6.15796 22.0639 6.50596 21.8619L11.836 18.7329L17.516 21.8749C17.667 21.9589 17.834 21.9999 18 21.9999C18.217 21.9999 18.433 21.9299 18.612 21.7909C18.928 21.5469 19.068 21.1379 18.969 20.7509Z" fill="white"/>
</svg>
