<svg width="24" height="24" viewBox="0 0 24 24" fill="none" xmlns="http://www.w3.org/2000/svg">
<path fill-rule="evenodd" clip-rule="evenodd" d="M16.2502 14.9582C15.5585 14.9582 15.0002 15.5166 15.0002 16.2082C15.0002 16.8999 15.5585 17.4582 16.2502 17.4582C16.9419 17.4582 17.5002 16.8999 17.5002 16.2082C17.5002 15.5166 16.9419 14.9582 16.2502 14.9582ZM7.7306 11.6048C7.1599 11.1418 6.87471 10.4321 6.87471 9.69718C6.87471 8.36405 7.81371 7.21551 9.13714 7.05499C10.1152 6.93636 11.3074 6.83341 12.4997 6.83341C13.692 6.83341 14.8843 6.93636 15.8623 7.05499C17.1857 7.21551 18.1247 8.36405 18.1247 9.69718C18.1247 10.4321 17.8395 11.1418 17.2688 11.6048C16.2228 12.4535 14.3612 13.7084 12.4997 13.7084C10.6382 13.7084 8.77663 12.4535 7.7306 11.6048ZM8.74961 14.9582C8.05794 14.9582 7.49961 15.5166 7.49961 16.2082C7.49961 16.8999 8.05794 17.4582 8.74961 17.4582C9.44128 17.4582 9.99961 16.8999 9.99961 16.2082C9.99961 15.5166 9.44128 14.9582 8.74961 14.9582ZM5 15.0121V7.68254C5 4.75191 9.02007 3.08325 12.4151 3.08325C16.1667 3.08325 20 4.75191 20 7.68254V15.0121C20 16.6174 19.2624 18.0566 18.0755 19.143L18.9594 20.616C19.2808 21.1518 18.8949 21.8333 18.2702 21.8333C17.9878 21.8333 17.7262 21.6852 17.581 21.4431L16.7707 20.0926C15.5429 20.7987 14.0611 21.2083 12.5 21.2083C10.9406 21.2083 9.46044 20.7996 8.23345 20.095L7.4246 21.4431C7.27935 21.6852 7.01773 21.8333 6.7354 21.8333C6.11066 21.8333 5.72477 21.1518 6.0462 20.616L6.92808 19.1462C5.73905 18.0595 5 16.6191 5 15.0121ZM12.4999 3.70823C11.8095 3.70823 11.2499 4.26788 11.2499 4.95823C11.2499 5.64859 11.8095 6.20823 12.4999 6.20823C13.1903 6.20823 13.7499 5.64859 13.7499 4.95823C13.7499 4.26788 13.1903 3.70823 12.4999 3.70823Z" fill="white"/>
</svg>
