<svg width="24" height="24" viewBox="0 0 24 24" fill="none" xmlns="http://www.w3.org/2000/svg">
<path fill-rule="evenodd" clip-rule="evenodd" d="M21.8333 9.86111C21.8333 9.30883 21.3856 8.86111 20.8333 8.86111H15.5833L15.5833 10.9444H19.75V13.7222H15.5833V15.8056H19.75V18.5833H15.5833L15.5833 21.3611H23.2222V19.9722H21.8333V9.86111ZM14.1944 21.3611V8.86111V5C14.1944 4.44771 13.7467 4 13.1944 4H3.38889C2.83661 4 2.38889 4.44772 2.38889 5V19.9722H1V21.3611H14.1944ZM7.25 10.9444H4.47222V13.7222H7.25V10.9444ZM4.47222 15.8056H7.25V18.5833H4.47222V15.8056ZM12.1111 10.9444H9.33333V13.7222H12.1111V10.9444ZM9.33333 6.08333H12.1111V8.86111H9.33333V6.08333ZM12.1111 15.8056H9.33333V18.5833H12.1111V15.8056ZM4.47222 6.08333H7.25V8.86111H4.47222V6.08333Z" fill="white"/>
</svg>
