<svg width="24" height="24" viewBox="0 0 24 24" fill="none" xmlns="http://www.w3.org/2000/svg">
<path fill-rule="evenodd" clip-rule="evenodd" d="M15.7043 7H9.29482C7.87501 7 6.59825 7.86441 6.07094 9.18267L4.99957 11.8611H3.27734C3.0012 11.8611 2.77734 12.085 2.77734 12.3611V12.75C2.77734 13.0261 3.0012 13.25 3.27734 13.25H4.34656C3.37287 14.1317 2.77734 15.4265 2.77734 16.8452V20.5833C2.77734 21.1356 3.22506 21.5833 3.77734 21.5833H4.55512C5.10741 21.5833 5.55512 21.1356 5.55512 20.5833V20.1944H19.444V20.5833C19.444 21.1356 19.8917 21.5833 20.444 21.5833H21.2218C21.7741 21.5833 22.2218 21.1356 22.2218 20.5833V16.8451C22.2218 15.4265 21.6263 14.1317 20.6526 13.25H21.7218C21.9979 13.25 22.2218 13.0261 22.2218 12.75V12.3611C22.2218 12.085 21.9979 11.8611 21.7218 11.8611H19.9996L18.9282 9.18267C18.4009 7.86441 17.1241 7 15.7043 7ZM17.9596 12.0884C18.1914 12.1068 18.4173 12.1421 18.6364 12.193L17.6386 9.69849C17.3223 8.90754 16.5562 8.38889 15.7043 8.38889H9.29482C8.44294 8.38889 7.67688 8.90754 7.36049 9.69849L6.36269 12.193C6.58182 12.1421 6.80775 12.1068 7.03952 12.0884C8.61516 11.9628 10.5065 11.8611 12.4996 11.8611C14.4926 11.8611 16.384 11.9628 17.9596 12.0884ZM5.55512 13.9444C4.78806 13.9444 4.16623 14.5663 4.16623 15.3333C4.16623 16.1004 4.78806 16.7222 5.55512 16.7222C6.32218 16.7222 6.94401 16.1004 6.94401 15.3333C6.94401 14.5663 6.32218 13.9444 5.55512 13.9444ZM18.0551 15.3333C18.0551 14.5663 18.6769 13.9444 19.444 13.9444C20.2111 13.9444 20.8329 14.5663 20.8329 15.3333C20.8329 16.1004 20.2111 16.7222 19.444 16.7222C18.6769 16.7222 18.0551 16.1004 18.0551 15.3333ZM9.02734 17.4167C8.64381 17.4167 8.3329 17.7276 8.3329 18.1111C8.3329 18.4946 8.64381 18.8056 9.02734 18.8056H15.9718C16.3553 18.8056 16.6662 18.4946 16.6662 18.1111C16.6662 17.7276 16.3553 17.4167 15.9718 17.4167H9.02734Z" fill="white"/>
</svg>
