<svg width="20" height="20" viewBox="0 0 20 20" fill="none" xmlns="http://www.w3.org/2000/svg">
<path fill-rule="evenodd" clip-rule="evenodd" d="M16.622 0.753557C17.2836 0.0921122 18.3317 0.0719626 18.9917 0.731779C19.6517 1.3916 19.6316 2.43932 18.9699 3.10076L14.7973 7.27201L16.8696 17.0422C16.9861 17.5917 16.8167 18.1629 16.4194 18.5601L15.5876 19.3916L11.2185 10.8498L6.74484 15.322L7.2297 17.8427C7.2817 18.113 7.19622 18.3915 7.0015 18.5862L6.11988 19.4675L4.07966 15.6391L0.25 13.5995L1.13162 12.7182C1.32633 12.5235 1.60494 12.4381 1.87535 12.49L4.39689 12.9747L16.622 0.753557ZM0.325945 4.13476L1.18055 3.28042C1.57764 2.88346 2.14854 2.71407 2.69796 2.8302L10.8158 4.54599L7.54543 7.81532L0.325945 4.13476Z" fill="#212121"/>
</svg>
