<svg width="46" height="46" viewBox="0 0 46 46" fill="none" xmlns="http://www.w3.org/2000/svg">
<path fill-rule="evenodd" clip-rule="evenodd" d="M23 0.543945C35.4022 0.543945 45.4561 10.5978 45.4561 23C45.4561 35.4022 35.4022 45.4561 23 45.4561C10.5978 45.4561 0.543945 35.4022 0.543945 23C0.543945 10.5978 10.5978 0.543945 23 0.543945ZM33.3816 14.6662L30.098 31.223C30.098 31.223 29.6384 32.3709 28.3754 31.8198L20.7632 25.9936C21.7862 25.0733 29.7236 17.9375 30.0708 17.6141C30.6069 17.1131 30.2738 16.8151 29.6507 17.1939L17.9261 24.6392L13.4032 23.1169C13.4032 23.1169 12.6913 22.8638 12.6228 22.3127C12.5533 21.7616 13.4261 21.4637 13.4261 21.4637L31.8655 14.2303C31.8655 14.2303 33.3816 13.5641 33.3816 14.6662Z" fill="#212121"/>
</svg>
