<svg width="23" height="23" viewBox="0 0 23 23" fill="none" xmlns="http://www.w3.org/2000/svg">
<path d="M12.3485 17.6999C15.6297 17.9301 18.5339 19.2951 20.5207 21.3338C22.2361 23.094 0.489086 23.0788 2.21487 21.3161C4.21171 19.2765 7.12861 17.9152 10.4214 17.6964V11.6914C10.4214 11.1592 10.8528 10.7278 11.3849 10.7278C11.9171 10.7278 12.3485 11.1592 12.3485 11.6914V17.6999ZM12.3485 4.40671C13.9002 2.85499 15.9945 2.06637 18.5805 2.06637V3.99346C16.4608 3.99346 14.8269 4.60569 13.6252 5.85717C17.0977 5.16823 19.94 6.1079 22.0211 8.70301L20.5177 9.90863C18.7991 7.76558 16.4648 7.08265 13.3583 7.89195C16.109 8.80234 18.1345 10.6193 19.3822 13.3113L17.6338 14.1216C16.416 11.4941 14.3558 9.92685 11.3647 9.36692C8.37359 9.92685 6.31341 11.4941 5.09563 14.1216L3.34721 13.3113C4.59489 10.6193 6.62044 8.80234 9.37113 7.89195C6.26467 7.08265 3.93029 7.76558 2.21169 9.90863L0.708313 8.70301C2.78944 6.1079 5.63168 5.16823 9.10423 5.85717C7.90252 4.60569 6.26867 3.99346 4.1489 3.99346V2.06637C6.75745 2.06637 8.86566 2.86879 10.4214 4.44744V0.708496H12.3485V4.40671Z" fill="#212121"/>
</svg>
