<svg width="22" height="22" viewBox="0 0 22 22" fill="none" xmlns="http://www.w3.org/2000/svg">
<path fill-rule="evenodd" clip-rule="evenodd" d="M20.3332 6.12798C19.6461 6.43252 18.909 6.63906 18.1344 6.73127C18.9253 6.2575 19.5307 5.50604 19.8176 4.61336C19.0757 5.0521 18.2569 5.37068 17.3844 5.54338C16.6857 4.79775 15.6918 4.33331 14.5895 4.33331C12.4748 4.33331 10.7601 6.04864 10.7601 8.16305C10.7601 8.46293 10.7939 8.75582 10.8592 9.03589C7.67718 8.87601 4.85555 7.35089 2.96707 5.03343C2.63696 5.59821 2.44916 6.25631 2.44916 6.9588C2.44916 8.28791 3.12571 9.46063 4.15219 10.1467C3.52463 10.1257 2.93441 9.95304 2.41769 9.66598V9.71382C2.41769 11.5692 3.73811 13.1176 5.48894 13.4701C5.16816 13.5564 4.8299 13.6042 4.47996 13.6042C4.23269 13.6042 3.99356 13.5797 3.7591 13.5331C4.24666 15.0559 5.66041 16.1632 7.33545 16.1936C6.02551 17.2205 4.37382 17.8307 2.57983 17.8307C2.27073 17.8307 1.96627 17.8121 1.6665 17.7782C3.36136 18.8669 5.37349 19.5017 7.53608 19.5017C14.5803 19.5017 18.4307 13.6649 18.4307 8.60298L18.4179 8.10706C19.1702 7.57025 19.8211 6.8958 20.3332 6.12798Z" fill="#212121"/>
</svg>
