<svg width="22" height="22" viewBox="0 0 22 22" fill="none" xmlns="http://www.w3.org/2000/svg">
<path fill-rule="evenodd" clip-rule="evenodd" d="M20.7829 15.4498C20.1477 14.6876 19.4002 14.0372 18.693 13.3465C18.0549 12.7239 18.0147 12.3627 18.5276 11.6441C19.0874 10.8599 19.6894 10.1057 20.2543 9.32496C20.7815 8.59533 21.3206 7.86769 21.598 6.99408C21.774 6.43828 21.6184 6.19278 21.0486 6.09547C20.9505 6.07844 20.849 6.07756 20.749 6.07756L17.3689 6.07357C16.9526 6.06738 16.7224 6.24896 16.5752 6.61809C16.3764 7.11704 16.1715 7.61556 15.9347 8.09704C15.3975 9.18872 14.7975 10.2439 13.9562 11.1374C13.7707 11.3345 13.5656 11.5835 13.2556 11.4809C12.8678 11.3394 12.7535 10.7002 12.7599 10.4841L12.7566 6.58115C12.6815 6.02359 12.5579 5.775 12.0045 5.66663L8.49323 5.66729C8.02454 5.66729 7.78952 5.84843 7.53926 6.14169C7.39489 6.31111 7.35133 6.42103 7.64803 6.47721C8.23081 6.58779 8.55912 6.9651 8.64622 7.54965C8.78595 8.48364 8.77622 9.42139 8.69575 10.3591C8.67209 10.6329 8.625 10.9061 8.51645 11.1618C8.34666 11.5636 8.07251 11.6455 7.71236 11.3982C7.38626 11.1744 7.15722 10.8585 6.93304 10.5414C6.09093 9.35106 5.41906 8.0674 4.87121 6.7185C4.71291 6.3288 4.43987 6.0926 4.02711 6.08618C3.01299 6.07004 1.99866 6.06738 0.984545 6.08707C0.374352 6.09857 0.1924 6.39493 0.440899 6.94829C1.54544 9.40613 2.77489 11.7956 4.37974 13.9724C5.20372 15.0895 6.14974 16.0757 7.37189 16.7746C8.75699 17.5668 10.248 17.8052 11.8183 17.7318C12.5537 17.6973 12.7745 17.506 12.8086 16.7728C12.8316 16.2712 12.8884 15.7724 13.1358 15.3217C13.3785 14.8794 13.7462 14.7951 14.17 15.0702C14.382 15.208 14.5607 15.3834 14.7294 15.5683C15.1432 16.0213 15.5423 16.4879 15.9719 16.9256C16.5106 17.4741 17.1489 17.7981 17.9514 17.732L21.0581 17.7327C21.5587 17.6999 21.8182 17.086 21.5308 16.5271C21.329 16.1356 21.0641 15.787 20.7829 15.4498Z" fill="#212121"/>
</svg>
