<svg width="23" height="22" viewBox="0 0 23 22" fill="none" xmlns="http://www.w3.org/2000/svg">
<path fill-rule="evenodd" clip-rule="evenodd" d="M21.3269 15.4496C20.6917 14.6875 19.9442 14.037 19.237 13.3463C18.5989 12.7237 18.5587 12.3626 19.0716 11.644C19.6314 10.8597 20.2334 10.1056 20.7983 9.32484C21.3256 8.59521 21.8646 7.86757 22.142 6.99395C22.318 6.43816 22.1624 6.19266 21.5926 6.09535C21.4945 6.07832 21.393 6.07743 21.2931 6.07743L17.9129 6.07345C17.4966 6.06726 17.2665 6.24884 17.1192 6.61797C16.9205 7.11692 16.7155 7.61543 16.4787 8.09692C15.9415 9.1886 15.3415 10.2438 14.5003 11.1373C14.3148 11.3344 14.1096 11.5834 13.7996 11.4808C13.4119 11.3392 13.2976 10.7001 13.304 10.484L13.3006 6.58103C13.2255 6.02347 13.1019 5.77488 12.5485 5.6665L9.03726 5.66717C8.56856 5.66717 8.33354 5.8483 8.08328 6.14157C7.93891 6.31099 7.89536 6.42091 8.19205 6.47708C8.77483 6.58767 9.10314 6.96498 9.19025 7.54953C9.32997 8.48352 9.32024 9.42127 9.23977 10.359C9.21611 10.6328 9.16902 10.906 9.06047 11.1616C8.89068 11.5635 8.61653 11.6453 8.25639 11.3981C7.93029 11.1742 7.70124 10.8584 7.47706 10.5413C6.63495 9.35094 5.96308 8.06728 5.41523 6.71838C5.25693 6.32868 4.98389 6.09247 4.57113 6.08606C3.55702 6.06991 2.54268 6.06726 1.52857 6.08694C0.918374 6.09844 0.736421 6.39481 0.98492 6.94817C2.08946 9.40601 3.31891 11.7955 4.92376 13.9722C5.74774 15.0894 6.69376 16.0755 7.91592 16.7744C9.30101 17.5667 10.792 17.8051 12.3624 17.7317C13.0977 17.6971 13.3186 17.5058 13.3526 16.7727C13.3756 16.2711 13.4324 15.7723 13.6798 15.3216C13.9226 14.8792 14.2902 14.795 14.714 15.0701C14.9261 15.2079 15.1047 15.3833 15.2734 15.5682C15.6873 16.0211 16.0863 16.4878 16.5159 16.9255C17.0547 17.474 17.6929 17.798 18.4955 17.7319L21.6021 17.7325C22.1027 17.6998 22.3622 17.0858 22.0748 16.5269C21.873 16.1355 21.6081 15.7869 21.3269 15.4496Z" fill="white"/>
</svg>
