<svg width="22" height="16" viewBox="0 0 22 16" fill="none" xmlns="http://www.w3.org/2000/svg">
<path fill-rule="evenodd" clip-rule="evenodd" d="M18.9916 0.782113C20.1088 0.907022 21.0368 1.74438 21.2979 2.87935C21.6666 4.4825 21.6666 6.23129 21.6666 7.88346V7.92418C21.6666 9.58809 21.6653 11.3522 21.2933 12.9686C21.0321 14.1035 20.1039 14.9409 18.9874 15.0658C16.3424 15.3614 13.6653 15.363 10.9991 15.3614C8.33344 15.363 5.65563 15.3614 3.01041 15.0658C1.89326 14.9407 0.96571 14.1033 0.704975 12.9686C0.333252 11.3525 0.333252 9.58831 0.333252 7.92418C0.333252 6.26005 0.337436 4.49568 0.709159 2.87935C0.970334 1.74438 1.89766 0.907022 3.01415 0.782113C5.65959 0.486693 8.33763 0.485151 11.0033 0.486693C13.6686 0.485151 16.3462 0.486693 18.9916 0.782113ZM8.2469 4.17889V11.2366C9.19998 10.7422 10.1496 10.2497 11.0987 9.7574C12.407 9.07882 13.7145 8.40069 15.0291 7.71864L8.2469 4.17889Z" fill="#212121"/>
</svg>
